<svg xmlns="http://www.w3.org/2000/svg" width="389" height="84" fill="none"><path fill="#fff" d="m103.062 53.782 1.366-2.879c1.919 1.735 5.204 2.99 8.526 2.99 4.466 0 6.385-1.735 6.385-3.986 0-6.312-15.649-2.325-15.649-11.922 0-3.986 3.1-7.382 9.891-7.382 3.027 0 6.164.812 8.305 2.289l-1.218 2.952c-2.252-1.439-4.798-2.104-7.087-2.104-4.392 0-6.274 1.845-6.274 4.097 0 6.312 15.65 2.362 15.65 11.848 0 3.949-3.174 7.345-10.003 7.345-3.949 0-7.825-1.329-9.892-3.248Z"/><path fill="#fff" d="m103.494 54.034 1.366-2.88-.785.102c2.105 1.825 4.83 2.81 7.585 3.074 2.205.211 5.023.066 6.802-1.449 2.254-1.919 1.537-5.081-.893-6.377-2.747-1.465-6.035-1.597-8.917-2.724-1.415-.553-2.819-1.356-3.647-2.673-.978-1.556-1.053-3.681-.422-5.38.951-2.56 3.491-3.89 6.042-4.373 3.673-.695 7.865-.109 11.01 1.968l-.23-.565-1.218 2.952.734-.3c-2.567-1.58-5.562-2.397-8.582-2.117-1.873.174-3.981.777-4.994 2.508-1.528 2.612.268 4.91 2.687 5.872 2.956 1.176 6.263 1.322 9.112 2.798 3.26 1.688 4.417 5.749 2.166 8.822-1.704 2.327-4.784 3.1-7.52 3.218-3.56.154-7.639-.653-10.373-3.084-.479-.426-1.189.278-.707.707 3.96 3.522 10.856 4.407 15.724 2.469 3.513-1.399 5.681-4.801 4.848-8.597-.699-3.184-3.662-4.666-6.53-5.516-1.586-.47-3.212-.786-4.804-1.236-1.219-.345-2.683-.754-3.541-1.756-1.325-1.548-.315-3.715 1.323-4.533 3.308-1.653 7.723-.516 10.688 1.31.303.187.616-.012.734-.3l1.218-2.951c.086-.21-.061-.453-.23-.565-4.251-2.807-11.261-3.488-15.653-.574-2.897 1.922-4.161 5.789-2.718 9.017 1.278 2.86 4.491 3.943 7.297 4.675 1.545.403 3.122.709 4.636 1.223 1.136.386 2.511.952 2.977 2.161.869 2.254-1.29 3.779-3.214 4.197-3.597.783-7.89-.19-10.683-2.61-.223-.193-.638-.21-.785.101l-1.366 2.879c-.274.578.587 1.086.863.505v.002ZM144.809 50.276h-13.73l-2.842 6.459h-3.802l11.7-25.836h3.654l11.737 25.836h-3.876l-2.842-6.459h.001Zm-1.292-2.953-5.574-12.66-5.573 12.66h11.147Z"/><path fill="#fff" d="M144.809 49.776h-13.73c-.16 0-.363.092-.432.248l-2.416 5.49c-.041.093-.451.822-.398.903-.003-.005.466-.052.274-.182-.1-.068-.492 0-.612 0h-3.06l.432.752 10.746-23.73c.256-.564.607-1.15.789-1.743.011-.037.171-.302.15-.331-.058-.08-.4.113-.332.215.034.05.632 0 .686 0h2.009c.124 0 .588.07.689 0 .334-.232-.298.004-.236-.224-.053.196.397.873.477 1.05l5.998 13.203 5.252 11.561.432-.752h-2.975c-.181 0-.504-.064-.674 0-.467.176.333.031.194.222.047-.065-.348-.79-.378-.86l-2.452-5.573c-.259-.588-1.12-.079-.863.505l2.842 6.459c.069.156.271.248.432.248h3.876c.408 0 .584-.418.432-.752l-10.256-22.576-1.481-3.261c-.071-.156-.27-.248-.432-.248h-3.654c-.162 0-.361.092-.432.248l-10.224 22.576-1.477 3.261c-.152.335.023.752.432.752h3.802c.16 0 .363-.092.432-.248l2.302-5.23c.094-.213.512-.839.471-1.071-.045-.262-.464-.033-.219.09.418.211 1.497 0 1.956 0h11.63c.643 0 .645-1 0-1l-.002-.002Z"/><path fill="#fff" d="m143.949 47.07-4.886-11.098-.688-1.562c-.144-.327-.719-.327-.863 0l-4.885 11.098-.688 1.562c-.148.335.02.752.432.752h11.147c.643 0 .645-1 0-1h-11.147l.432.752 4.885-11.098.688-1.562h-.863l4.886 11.098.688 1.562c.259.588 1.121.079.863-.505l-.001.001ZM177.588 30.898v25.836h-3.027l-15.502-19.267v19.267h-3.691V30.898h3.027l15.502 19.267V30.898h3.691Z"/><path fill="#fff" d="M177.088 30.898v25.836l.5-.5h-1.158c-.433 0-1.325-.178-1.721 0-.154.069.224.277.132.055-.061-.146-.24-.299-.339-.421l-3.242-4.029-9.455-11.751-2.393-2.974c-.282-.351-.854-.048-.854.354v19.267l.5-.5h-3.691l.5.5V30.899l-.5.5h1.158c.433 0 1.325.178 1.721 0 .154-.069-.224-.277-.132-.055.061.146.24.299.339.421l3.242 4.029 9.455 11.751 2.393 2.974c.282.351.854.048.854-.354V30.898l-.5.5h3.691c.643 0 .645-1 0-1h-3.691c-.27 0-.5.229-.5.5v19.267l.854-.354-15.004-18.648c-.264-.329-.435-.658-.851-.765-.888-.228-2.104 0-3.027 0-.27 0-.5.229-.5.5v25.836c0 .27.229.5.5.5h3.691c.27 0 .5-.229.5-.5V37.467l-.854.354 15.004 18.648c.264.329.435.658.851.765.888.228 2.104 0 3.027 0 .27 0 .5-.229.5-.5V30.898c0-.643-1-.645-1 0ZM195.273 30.898h10.889c8.304 0 13.952 5.24 13.952 12.918 0 7.677-5.648 12.918-13.952 12.918h-10.889V30.898Zm10.667 22.625c6.385 0 10.482-3.912 10.482-9.707 0-5.795-4.098-9.707-10.482-9.707h-6.976v19.414h6.976Z"/><path fill="#fff" d="M195.273 31.398h9.279c4.407 0 8.81.656 11.97 4.057 3.712 3.996 4.111 10.658 1.181 15.204-2.688 4.171-7.498 5.576-12.215 5.576h-10.215l.5.5V30.899c0-.643-1-.645-1 0v25.836c0 .27.229.5.5.5h10.011c4.703 0 9.449-1.186 12.519-5.016 3.365-4.198 3.743-10.6 1.07-15.246-2.636-4.58-7.772-6.557-12.858-6.574-3.581-.012-7.161 0-10.742 0-.643 0-.645 1 0 1v-.001Z"/><path fill="#fff" d="M205.94 54.023c3.076-.028 6.222-.922 8.383-3.22 2.065-2.195 2.851-5.296 2.531-8.252-.312-2.878-1.746-5.484-4.176-7.101-2.197-1.461-4.783-1.842-7.367-1.842h-6.347c-.27 0-.5.229-.5.5v19.414c0 .27.229.5.5.5h6.976c.643 0 .645-1 0-1h-6.976l.5.5V34.108l-.5.5h4.904c2.064 0 4.111-.048 6.098.624 2.629.889 4.709 2.899 5.525 5.571.816 2.672.534 5.804-.994 8.17-1.865 2.887-5.259 4.02-8.556 4.05-.643.006-.646 1.006-.001 1ZM225.763 30.898h3.691v25.836h-3.691V30.898Z"/><path fill="#fff" d="M225.763 31.398h3.691l-.5-.5v25.836l.5-.5h-3.691l.5.5V30.898c0-.643-1-.645-1 0v25.836c0 .27.229.5.5.5h3.691c.27 0 .5-.23.5-.5V30.898c0-.27-.229-.5-.5-.5h-3.691c-.643 0-.645 1 0 1ZM255.957 53.523v3.21h-18.75V30.899h18.234v3.21h-14.543v7.937h12.956v3.137h-12.956v8.34h15.059Z"/><path fill="#fff" d="M255.457 53.523v3.21l.5-.5h-18.75l.5.5V30.899l-.5.5h18.234l-.5-.5v3.21l.5-.5h-14.543c-.27 0-.5.23-.5.5v7.937c0 .27.229.5.5.5h12.956l-.5-.5v3.137l.5-.5h-12.956c-.27 0-.5.229-.5.5v8.34c0 .27.229.5.5.5h15.059c.643 0 .645-1 0-1h-15.059l.5.5v-8.34l-.5.5h12.956c.27 0 .5-.23.5-.5v-3.137c0-.27-.229-.5-.5-.5h-12.956l.5.5v-7.936l-.5.5h14.543c.27 0 .5-.23.5-.5v-3.211c0-.27-.229-.5-.5-.5h-18.234c-.27 0-.5.229-.5.5v25.836c0 .27.229.5.5.5h18.75c.27 0 .5-.23.5-.5v-3.211c0-.643-1-.645-1 0ZM279.73 43.669h3.544v10.076c-2.584 2.178-6.164 3.285-9.781 3.285-7.936 0-13.768-5.574-13.768-13.214 0-7.64 5.832-13.213 13.842-13.213 4.097 0 7.566 1.366 9.928 3.986l-2.289 2.288c-2.14-2.067-4.576-2.99-7.492-2.99-5.979 0-10.298 4.171-10.298 9.928 0 5.685 4.319 9.928 10.261 9.928 2.178 0 4.208-.48 6.053-1.66v-8.415.001Z"/><path fill="#fff" d="M279.73 44.169h3.544l-.5-.5v8.454c0 .359.147 1.097 0 1.43-.241.544-2.071 1.328-2.754 1.636-2.912 1.313-6.337 1.682-9.469 1.066-4.965-.976-8.968-4.613-10.037-9.613-1.069-5 .833-10.434 5.178-13.294 5.207-3.428 13.109-3.071 17.45 1.595v-.707l-2.289 2.288h.707a11.64 11.64 0 0 0-12.672-2.144c-3.842 1.708-6.095 5.613-5.967 9.775.125 4.033 2.503 7.646 6.245 9.209 2.126.888 4.507 1.075 6.771.694 1.179-.199 4.119-.774 4.293-2.201.181-1.485 0-3.103 0-4.598v-3.591c0-.643-1-.645-1 0v7.572c0 .166.095.691 0 .834.258-.391-.943.164-.5.013-.345.118-.706.343-1.038.469-.521.198-1.062.349-1.608.461a11.91 11.91 0 0 1-3.459.181c-3.908-.36-7.319-2.911-8.365-6.756-1.01-3.71.203-7.915 3.373-10.198 4.004-2.883 9.678-2.328 13.219.985a.509.509 0 0 0 .707 0l2.289-2.288a.51.51 0 0 0 0-.707c-4.084-4.39-11.058-5.199-16.448-2.926-5.046 2.128-8.176 7.058-8.176 12.506s3.115 10.371 8.147 12.507c2.725 1.157 5.755 1.438 8.673 1.022a16.25 16.25 0 0 0 4.84-1.463c.84-.41 2.637-1.174 2.888-2.145.129-.498 0-1.201 0-1.708v-8.36c0-.27-.229-.5-.5-.5h-3.544c-.643 0-.645 1 0 1l.002.002ZM288.222 43.816c0-7.566 5.832-13.213 13.768-13.213 7.862 0 13.694 5.61 13.694 13.213 0 7.603-5.832 13.214-13.694 13.214-7.936 0-13.768-5.648-13.768-13.214Zm23.77 0c0-5.721-4.282-9.928-10.003-9.928-5.795 0-10.077 4.208-10.077 9.928 0 5.72 4.282 9.928 10.077 9.928 5.721 0 10.003-4.208 10.003-9.928Z"/><path fill="#fff" d="M288.722 43.816c.064-5.491 3.396-10.295 8.67-12.005 5.158-1.672 11.303-.416 14.882 3.797 3.462 4.075 3.855 10.344 1.094 14.893-2.882 4.748-8.697 6.75-14.032 5.804-6.196-1.099-10.541-6.204-10.614-12.489-.008-.643-1.008-.645-1 0 .068 5.826 3.552 10.925 9.094 12.865 5.586 1.955 12.406.564 16.264-4.068 3.671-4.408 4.126-11.086 1.152-15.986-3.096-5.101-9.256-7.248-14.993-6.292-6.706 1.118-11.438 6.712-11.517 13.481-.008.644.992.644 1 0Z"/><path fill="#fff" d="M312.493 43.816c-.054-4.403-2.596-8.344-6.814-9.821-4.118-1.442-9.109-.324-11.921 3.09-2.782 3.377-3.118 8.498-.867 12.244 2.289 3.808 6.855 5.477 11.14 4.736 5.038-.871 8.4-5.227 8.461-10.248.008-.644-.992-.644-1 0-.049 3.987-2.345 7.604-6.202 8.899-3.733 1.254-8.177.287-10.748-2.779-2.553-3.046-2.824-7.742-.789-11.128 2.07-3.444 6.268-4.967 10.142-4.252 4.545.84 7.54 4.705 7.596 9.26.008.643 1.008.645 1 0l.002-.001ZM323.365 54.409c0 .738-.148 1.292-.628 2.658l-1.734 5.13h-2.325l1.365-5.499c-.922-.332-1.55-1.181-1.55-2.288 0-1.477 1.07-2.51 2.473-2.51 1.403 0 2.399 1.07 2.399 2.51v-.001Z"/><path fill="#fff" d="M322.865 54.409c-.013 1.38-.7 2.79-1.14 4.091l-1.205 3.564.482-.367h-2.325l.482.633 1.365-5.499c.07-.283-.092-.514-.349-.615-1.47-.578-1.59-2.793-.222-3.562 1.393-.783 2.877.252 2.912 1.756.015.642 1.015.645 1 0-.025-1.068-.497-2.105-1.456-2.642-.93-.521-2.168-.489-3.068.087-.91.583-1.404 1.639-1.344 2.711.068 1.217.79 2.173 1.913 2.614l-.349-.615-1.365 5.499a.506.506 0 0 0 .482.633h2.325c.23 0 .411-.157.482-.367l1.235-3.653c.464-1.373 1.131-2.803 1.145-4.267.006-.644-.994-.644-1 0v-.001ZM336.801 43.816c0-7.64 5.832-13.213 13.694-13.213 3.986 0 7.456 1.366 9.818 4.023l-2.399 2.326c-1.994-2.104-4.429-3.064-7.271-3.064-5.832 0-10.151 4.208-10.151 9.928 0 5.72 4.319 9.928 10.151 9.928 2.842 0 5.277-.996 7.271-3.1l2.399 2.325c-2.362 2.658-5.832 4.06-9.855 4.06-7.825 0-13.656-5.574-13.656-13.214l-.001.001Z"/><path fill="#fff" d="M337.301 43.816c.057-4.945 2.698-9.403 7.252-11.48 5.021-2.29 11.6-1.501 15.407 2.643v-.707l-2.399 2.326h.707c-4.768-4.859-13.586-4.092-16.972 2.027-3.158 5.706-.349 13.186 5.92 15.118 3.955 1.219 8.161.203 11.052-2.745h-.707l2.399 2.325v-.707c-3.814 4.154-10.38 4.985-15.42 2.68-4.547-2.08-7.181-6.541-7.238-11.48-.007-.643-1.007-.645-1 0 .062 5.398 3.012 10.294 8.025 12.473 5.385 2.341 12.287 1.449 16.341-2.966.18-.197.201-.512 0-.707l-2.399-2.325a.507.507 0 0 0-.707 0c-2.976 3.035-7.584 3.828-11.429 1.959-3.232-1.571-5.139-4.868-5.139-8.433 0-3.565 1.906-6.862 5.139-8.433 3.824-1.859 8.462-1.102 11.429 1.922a.508.508 0 0 0 .707 0l2.399-2.326c.2-.194.181-.51 0-.707-4.049-4.407-10.958-5.253-16.326-2.929-5.02 2.174-7.976 7.071-8.039 12.473-.007.644.993.644 1 0l-.002-.001ZM381.427 50.276h-13.731l-2.842 6.459h-3.802l11.701-25.836h3.654l11.737 25.836h-3.875l-2.842-6.459Zm-1.293-2.953-5.573-12.66-5.574 12.66h11.147Z"/><path fill="#fff" d="M381.427 49.776h-13.731c-.16 0-.363.092-.432.248l-2.416 5.49c-.041.093-.451.822-.397.903-.003-.005.466-.052.274-.182-.1-.068-.492 0-.612 0h-3.06l.432.752 10.747-23.73c.256-.564.607-1.15.789-1.743.011-.037.171-.302.15-.331-.058-.08-.4.113-.332.215.034.05.632 0 .686 0h2.009c.124 0 .588.07.689 0 .334-.232-.298.004-.236-.224-.053.196.397.873.477 1.05l5.998 13.203 5.252 11.561.432-.752h-2.975c-.181 0-.504-.064-.674 0-.467.176.333.031.194.222.047-.065-.348-.79-.378-.86l-2.452-5.573c-.259-.588-1.12-.079-.863.505l2.842 6.459c.069.156.271.248.432.248h3.875c.408 0 .584-.418.432-.752l-10.256-22.576-1.481-3.261c-.071-.156-.27-.248-.432-.248h-3.654c-.162 0-.361.092-.432.248L362.1 53.224l-1.477 3.261c-.152.335.023.752.432.752h3.802c.16 0 .363-.092.432-.248l2.301-5.23c.094-.213.511-.839.471-1.071-.045-.262-.464-.033-.219.09.418.211 1.497 0 1.956 0h11.631c.643 0 .645-1 0-1l-.002-.002Z"/><path fill="#fff" d="m380.566 47.07-4.885-11.098-.688-1.562c-.144-.327-.719-.327-.863 0l-4.886 11.098-.688 1.562c-.148.335.02.752.432.752h11.146c.643 0 .645-1 0-1h-11.146l.432.752 4.886-11.098.688-1.562h-.863l4.885 11.098.688 1.562c.259.588 1.121.079.863-.505l-.001.001Z"/><path stroke="#fff" stroke-linecap="round" stroke-width="4.51" d="M47.55 11.197c17.704 1.872 31.5 16.852 31.5 35.053 0 19.468-15.783 35.25-35.25 35.25-19.469 0-35.25-15.782-35.25-35.25 0-5.071 1.07-9.893 2.998-14.25"/><path stroke="#fff" stroke-linecap="round" stroke-linejoin="round" stroke-miterlimit="10" stroke-width="4.508" d="M86.55 55H10M21.708 3v60.934M21.708 13.97s-3.08-8.716-12.397-8.716M21.032 15.397s-7.288-.826-11.42 7.814"/><path stroke="#fff" stroke-linecap="round" stroke-linejoin="round" stroke-miterlimit="10" stroke-width="4.508" d="M21.708 15.848s-3.756-3.907-9.617-3.907C6.231 11.94 3 16.599 3 16.599M21.708 13.97s3.08-8.716 12.398-8.716M22.31 15.397s7.288-.826 11.42 7.814"/><path stroke="#fff" stroke-linecap="round" stroke-linejoin="round" stroke-miterlimit="10" stroke-width="4.508" d="M21.708 15.848s3.757-3.907 9.618-3.907c5.935 0 9.09 4.658 9.09 4.658M47.555 25.165v38.844M47.555 34.33s-2.18-6.31-9.017-6.31M47.104 35.383s-5.335-.601-8.265 5.635"/><path stroke="#fff" stroke-linecap="round" stroke-linejoin="round" stroke-miterlimit="10" stroke-width="4.508" d="M47.554 35.683s-2.704-2.855-6.987-2.855c-4.283 0-6.537 3.381-6.537 3.381M47.555 34.33s2.178-6.31 9.016-6.31M48.005 35.383s5.335-.601 8.265 5.635"/><path stroke="#fff" stroke-linecap="round" stroke-linejoin="round" stroke-miterlimit="10" stroke-width="4.508" d="M47.555 35.683s2.704-2.855 6.987-2.855c4.283 0 6.537 3.381 6.537 3.381M57.55 64h-44"/></svg>